<svg width="60" height="61" viewBox="0 0 60 61" fill="none" xmlns="http://www.w3.org/2000/svg">
<g clip-path="url(#clip0_5_53)">
<path d="M30 0.96344C22.0435 0.96344 14.4129 4.12415 8.7868 9.75024C3.16071 15.3763 0 23.0069 0 30.9634C0 38.9199 3.16071 46.5506 8.7868 52.1766C14.4129 57.8027 22.0435 60.9634 30 60.9634C37.9565 60.9634 45.5871 57.8027 51.2132 52.1766C56.8393 46.5506 60 38.9199 60 30.9634C60 23.0069 56.8393 15.3763 51.2132 9.75024C45.5871 4.12415 37.9565 0.96344 30 0.96344ZM43.125 29.0884C43.6223 29.0884 44.0992 29.286 44.4508 29.6376C44.8025 29.9892 45 30.4662 45 30.9634C45 31.4607 44.8025 31.9376 44.4508 32.2893C44.0992 32.6409 43.6223 32.8384 43.125 32.8384H21.4012L29.4525 40.8859C29.6268 41.0603 29.7651 41.2672 29.8595 41.495C29.9538 41.7228 30.0024 41.9669 30.0024 42.2134C30.0024 42.46 29.9538 42.7041 29.8595 42.9319C29.7651 43.1597 29.6268 43.3666 29.4525 43.5409C29.2782 43.7153 29.0712 43.8536 28.8434 43.9479C28.6157 44.0422 28.3715 44.0908 28.125 44.0908C27.8785 44.0908 27.6343 44.0422 27.4066 43.9479C27.1788 43.8536 26.9718 43.7153 26.7975 43.5409L15.5475 32.2909C15.3729 32.1168 15.2344 31.9099 15.1398 31.6821C15.0453 31.4543 14.9966 31.2101 14.9966 30.9634C14.9966 30.7168 15.0453 30.4726 15.1398 30.2448C15.2344 30.017 15.3729 29.8101 15.5475 29.6359L26.7975 18.3859C27.1496 18.0339 27.6271 17.8361 28.125 17.8361C28.6229 17.8361 29.1004 18.0339 29.4525 18.3859C29.8046 18.738 30.0024 19.2155 30.0024 19.7134C30.0024 20.2113 29.8046 20.6889 29.4525 21.0409L21.4012 29.0884H43.125Z" fill="#646464" fill-opacity="0.68"/>
</g>
<defs>
<clipPath id="clip0_5_53">
<rect width="60" height="60" fill="white" transform="translate(0 0.96344)"/>
</clipPath>
</defs>
</svg>
