<svg width="44" height="65" viewBox="0 0 44 65" fill="none" xmlns="http://www.w3.org/2000/svg">
<ellipse cx="5.44828" cy="4" rx="3.44828" ry="4" fill="#E0051C"/>
<ellipse cx="22" cy="4" rx="3.44828" ry="4" fill="#E0051C"/>
<ellipse cx="38.5517" cy="4" rx="3.44828" ry="4" fill="#E0051C"/>
<ellipse cx="5.44828" cy="20" rx="3.44828" ry="4" fill="#E0051C"/>
<ellipse cx="22" cy="20" rx="3.44828" ry="4" fill="#E0051C"/>
<ellipse cx="38.5517" cy="20" rx="3.44828" ry="4" fill="#E0051C"/>
<ellipse cx="5.44828" cy="36" rx="3.44828" ry="4" fill="#E0051C"/>
<ellipse cx="22" cy="36" rx="3.44828" ry="4" fill="#E0051C"/>
<ellipse cx="38.5517" cy="36" rx="3.44828" ry="4" fill="#E0051C"/>
<path d="M4.272 55.512L3.536 53.848L3.2 55.512L2.112 61H0.336L2.768 49.24H2.96L6.192 55.592L7.152 57.72L8.112 55.592L11.28 49.24H11.456L13.984 61H12.224L11.04 55.512L10.688 53.848L10.048 55.512L7.2 61H7.104L4.272 55.512ZM15.5445 49.24H20.6965V50.808H17.3205V54.056H20.0405V55.656H17.3205V59.416H21.2245V61H15.5445V49.24ZM24.7733 53.384L24.8213 54.664V61H23.0293V49.224H23.2533L30.1653 56.936L30.1013 55.592V49.24H31.8933V61H31.6533L24.7733 53.384ZM38.4366 61.16C36.9646 61.16 35.898 60.7173 35.2366 59.832C34.5753 58.9467 34.2446 57.6613 34.2446 55.976V49.24H36.0366V56.008C36.0366 57.256 36.2233 58.152 36.5966 58.696C36.97 59.2293 37.5833 59.496 38.4366 59.496C39.29 59.496 39.898 59.2347 40.2606 58.712C40.634 58.1787 40.8206 57.2773 40.8206 56.008V49.24H42.6286V55.976C42.6286 57.6507 42.2766 58.936 41.5726 59.832C40.8793 60.7173 39.834 61.16 38.4366 61.16Z" fill="#E0051C"/>
</svg>
